<svg data-v-423bf9ae="" xmlns="http://www.w3.org/2000/svg" viewBox="0 0 376.31412786108916 163" class="iconAbove"><!----><!----><!----><g data-v-423bf9ae="" id="75df6ccf-085c-421e-b9a3-984d4e6b4da2" fill="black" transform="matrix(6.061562538146973,0,0,6.061562538146973,-2.9597461223602295,70.27703094482422)"><path d="M5.28 8.36C5.28 9.97 3.56 9.77 2.58 9.79C2.53 9.74 2.48 9.73 2.45 9.69C2.44 9.51 2.30 8.50 2.30 8.05C2.30 7.95 2.31 7.53 2.35 7.31C2.66 7.27 3.25 7.17 3.36 7.17C3.68 7.17 5.28 7.39 5.28 8.36ZM7.08 8.39C7.08 7.21 6.79 6.15 5.04 5.75C4.70 5.68 3.91 5.54 3.81 5.54C3.70 5.54 3.49 5.61 3.36 5.57C2.98 5.47 1.82 5.68 1.60 5.68C1.48 5.68 1.01 5.59 0.90 5.59C0.78 5.59 0.67 5.63 0.60 5.68C0.49 6.27 0.49 7.36 0.49 7.46C0.49 7.57 0.48 8.64 0.55 9.18C0.56 9.31 0.63 9.44 0.63 9.55L0.63 10.98C0.63 12.60 0.62 11.37 0.73 14.64C0.73 14.78 0.77 15.02 0.77 15.20L2.14 15.20C2.52 15.09 2.25 14.64 2.25 14.42L2.25 12.60C2.25 12.49 2.34 11.80 2.35 11.40C2.48 11.26 2.60 11.23 2.70 11.23C2.80 11.23 3.78 11.45 3.88 11.45C5.11 11.45 7.08 10.04 7.08 8.39ZM12.78 12.36C12.18 12.39 11.37 12.29 10.84 12.32C11.28 11.52 11.34 10.61 11.73 9.72C11.94 10.14 12.15 10.67 12.28 11.09C12.40 11.48 12.60 11.94 12.78 12.36ZM15.68 15.12C14.67 12.84 13.99 10.79 13.29 8.89C13.08 8.34 12.66 7.60 12.52 7.21C12.36 6.80 12.28 6.27 12.11 5.91C12.04 5.75 11.84 5.53 11.73 5.47C11.49 6.03 11.24 6.71 11.05 7.11C10.72 7.78 10.16 8.65 10.05 9.03C9.51 10.77 8.76 13.38 7.90 15.12L9.70 15.12C9.88 14.76 9.84 14.22 10.16 14.03C10.61 13.75 11.66 14 13.45 13.96C13.58 14.34 13.75 14.80 13.96 15.12L15.68 15.12ZM23.18 6.48C23.18 6.31 23.09 5.77 22.99 5.53C22.26 5.59 20.82 5.63 20.72 5.63C20.61 5.63 17.35 5.49 17.22 5.49C17.01 5.49 16.49 5.70 16.49 6.08L16.49 7.10C16.77 7.14 17.16 7.25 17.28 7.25C17.39 7.25 18.10 7.11 18.21 7.11C18.35 7.11 18.91 7.13 18.97 7.28C19.12 7.80 19.17 8.97 19.17 9.07C19.17 10.26 18.94 9.70 19.12 12.66C19.17 13.33 19.07 13.52 19.08 13.69C19.15 14.24 19.08 14.77 19.17 15.19C19.64 15.15 19.99 15.13 20.73 15.18C20.55 15.09 20.73 14.38 20.73 14.17L20.73 11.10C20.73 11.00 20.59 10.29 20.61 9.95C20.64 9.31 20.75 8.16 20.75 7.28C20.96 7.07 21.32 7.11 21.53 7.11C21.64 7.11 22.78 7.15 22.89 7.15C23.17 7.15 23.18 6.62 23.18 6.48ZM30.88 6.48C30.88 6.31 30.79 5.77 30.69 5.53C29.96 5.59 28.52 5.63 28.42 5.63C28.31 5.63 25.05 5.49 24.92 5.49C24.71 5.49 24.19 5.70 24.19 6.08L24.19 7.10C24.47 7.14 24.86 7.25 24.98 7.25C25.09 7.25 25.80 7.11 25.91 7.11C26.05 7.11 26.61 7.13 26.67 7.28C26.82 7.80 26.87 8.97 26.87 9.07C26.87 10.26 26.64 9.70 26.82 12.66C26.87 13.33 26.77 13.52 26.78 13.69C26.85 14.24 26.78 14.77 26.87 15.19C27.34 15.15 27.69 15.13 28.43 15.18C28.25 15.09 28.43 14.38 28.43 14.17L28.43 11.10C28.43 11.00 28.29 10.29 28.31 9.95C28.34 9.31 28.45 8.16 28.45 7.28C28.66 7.07 29.02 7.11 29.23 7.11C29.34 7.11 30.48 7.15 30.59 7.15C30.87 7.15 30.88 6.62 30.88 6.48ZM38.57 5.67C37.42 5.60 35.31 5.46 35.20 5.46C35.08 5.46 33.03 5.66 31.99 5.78C31.99 6.19 31.89 6.96 31.89 7.06C31.89 7.17 32.02 11.28 32.06 13.36C32.06 13.79 31.92 14.62 31.95 15.02C31.99 15.06 32.00 15.12 32.07 15.16L38.50 15.16L38.50 14.92C38.50 14.81 38.39 14.70 38.37 14.60C38.35 14.34 38.36 14.03 38.30 13.83C38.14 13.79 37.94 13.73 37.80 13.73C35.83 13.65 34.97 13.73 34.86 13.73C34.78 13.73 33.74 13.65 33.56 13.48C33.94 10.79 33.26 11.03 35.46 11.03C35.57 11.03 36.81 11.21 36.92 11.21L38.26 11.21C38.44 11.09 38.46 10.54 38.46 10.35C38.46 10.23 38.46 9.87 38.40 9.67L38.44 9.62C37.27 9.67 36.43 9.69 36.32 9.69C36.20 9.69 35.13 9.60 35.01 9.60C34.90 9.60 33.96 9.73 33.85 9.73C33.77 9.73 33.52 9.59 33.52 9.42C33.52 9.31 33.60 9.25 33.60 9.17C33.61 8.61 33.61 7.83 33.73 7.27C34.45 7.04 34.58 7.08 35.08 7.08L37.83 7.17C38.86 7.17 38.51 6.97 38.57 5.67ZM44.42 8.67C44.42 8.93 44.45 9.20 44.10 9.55C43.92 9.73 43.48 9.73 43.15 9.76C42.88 9.79 42.45 9.88 42.34 9.88C42.24 9.88 41.58 9.83 41.26 9.69C41.10 9.62 41.06 8.85 41.06 8.54C41.06 8.43 41.16 7.64 41.16 7.24C41.30 7.28 41.54 7.38 41.65 7.38C41.76 7.38 42.59 7.28 42.70 7.28C43.46 7.28 44.42 7.62 44.42 8.67ZM45.99 15.19C45.85 14.53 45.33 14.13 44.97 13.20C44.63 12.36 44.70 11.84 44.16 11.12C45.32 11.05 45.89 9.02 45.89 8.09C45.89 7.97 45.89 7.73 45.88 7.62C45.81 7.04 44.41 5.89 43.78 5.82C42.88 5.71 41.16 5.59 41.06 5.59C41.06 5.59 39.91 5.60 39.73 5.87C39.77 6.17 39.75 6.62 39.73 6.86C39.70 7.45 39.63 8.19 39.63 8.29L39.63 14.69C39.63 14.80 39.73 15.02 39.77 15.16C39.96 15.11 40.03 15.12 40.12 15.12C40.25 15.12 40.78 15.20 41.19 15.25C41.19 14.70 41.29 14.15 41.20 12.14C41.19 11.90 41.09 11.42 41.23 11.31C41.68 11.35 42.24 11.06 42.50 11.37C43.16 12.10 44.10 13.87 44.23 15.05C44.13 15.33 44.94 15.29 45.11 15.29C45.22 15.29 45.81 15.27 45.99 15.19ZM55.15 5.56C54.64 5.50 53.80 5.40 53.69 5.40C53.45 5.40 53.40 5.75 53.40 5.95C53.40 6.06 53.40 6.50 53.44 9.14C53.44 9.67 53.56 10.53 53.56 10.65C53.56 11.06 53.61 11.79 53.45 12.28C52.46 11.06 51.39 9.73 50.74 8.62C50.50 8.25 49.97 7.41 49.74 7.04C49.43 6.55 49.22 5.95 48.82 5.42C48.27 5.42 47.53 5.54 47.17 5.56C47.17 6.31 47.15 7.73 47.15 7.83L47.15 9.76C47.15 9.87 47.21 11.76 47.18 12.70C47.18 13.16 47.07 14.03 47.07 14.13C47.07 14.32 47.14 14.94 47.31 15.12C47.75 15.08 48.31 15.23 48.62 14.98C48.71 14.91 48.73 14.77 48.73 14.69C48.73 14.32 48.68 13.94 48.71 13.65C48.72 13.55 48.79 13.44 48.79 13.34L48.79 9.72C48.79 9.41 48.58 8.37 48.75 8.30C49.69 9.16 50.15 10.40 50.79 11.23C51.23 11.80 51.84 12.31 52.25 12.89C52.70 13.52 53.20 14.62 53.45 14.98C53.52 15.09 53.79 15.12 53.89 15.12C54.00 15.12 54.60 15.02 54.96 15.01C55.01 14.94 55.08 14.80 55.06 14.73C54.85 13.34 54.94 12.26 55.10 11.35L55.15 5.56ZM62.57 12.12C62.57 12.01 62.54 11.55 62.45 11.35C62.34 11.07 61.78 10.43 61.43 10.29C61.18 10.19 60.94 10.05 60.73 10.01C60.56 9.97 60.33 10.00 60.24 9.94C59.84 9.67 58.20 9.76 58.20 8.69C58.20 8.23 58.60 7.35 59.42 7.35C59.72 7.35 60.20 7.52 60.42 7.80C60.68 8.12 60.94 8.50 61.10 8.54C61.38 8.62 62.01 8.78 62.10 8.78C62.26 8.78 62.38 8.44 62.38 8.23C62.38 7.34 60.65 5.59 59.75 5.59C58.70 5.59 56.15 6.13 56.15 8.23C56.15 8.74 56.35 10.42 57.20 10.68C57.37 10.72 57.62 10.70 57.71 10.75C58.77 11.37 60.62 10.86 60.62 12.54C60.62 13.09 59.75 13.75 59.14 13.75C58.56 13.75 57.76 13.45 57.86 12.53C57.61 12.33 56.48 11.90 56.42 11.90C56.25 11.90 56.11 12.46 56.11 12.54C56.11 12.92 56.38 13.23 56.46 13.45C57.09 15.01 58.88 15.29 60.20 15.29C60.31 15.29 60.66 15.32 60.79 15.27C61.88 14.87 62.57 13.13 62.57 12.12Z"></path></g><!----><g data-v-423bf9ae="" id="b3b347fc-4850-4223-af77-82a2a27996a7" transform="matrix(1.317248821258545,0,0,1.317248821258545,123.1349868774414,-19.758729934692383)" stroke="none" fill="black"><path d="M18.17 53.67a1.05 1.05 0 0 1 1.182-.904c1.454.194 4.203 1.572 4.203 5.401 0 5.11-3.591 5.977-3.743 6.011a1.053 1.053 0 0 1-.477-2.051c.115-.031 2.115-.617 2.115-3.961 0-2.963-2.279-3.301-2.376-3.314a1.052 1.052 0 0 1-.904-1.182zm41.618 27.549H7.105v-9.473h52.683v9.473zM17.549 68.516c5.288 0 9.636-4.092 10.051-9.275l4.194-2.467v7.603c0 .581.471 1.053 1.053 1.053H58.311c.064 0 .129-.008.193-.02l.029-.005a.98.98 0 0 0 .208-.07c.017-.008.035-.014.052-.023l16.292-8.42c.017-.009.032-.022.048-.032a.97.97 0 0 0 .307-.275.928.928 0 0 0 .104-.171 1.007 1.007 0 0 0 .103-.4c.001-.019.006-.037.006-.057v-3.684h14.428L60.554 69.641H9.918l3.449-2.029.006-.004c1.274.582 2.687.908 4.176.908zM9.567 58.429c0-4.401 3.581-7.982 7.982-7.982s7.982 3.581 7.982 7.982-3.581 7.982-7.982 7.982-7.982-3.58-7.982-7.982zm38.905-38.012v13.246l-4.157-.699V19.607l4.14.808.017.002zm7.29 12.062l-5.185 1.123V20.231l5.185-1.123v13.371zm-5.965-15.343l2.381.594-2.863.62-.004.001-.009.002c-.021.004-.038.013-.058.019-.047.013-.093.025-.137.044l-.017.008a1.043 1.043 0 0 0-.231-.076l-2.084-.407 3.022-.805zM33.899 40.17h23.358v23.156H33.899V40.17zm36.373-8.421l-12.219 6.315H37.175l6.083-3.144 6.084 1.023.006.001h.002c.021.004.042.003.063.005.037.004.073.01.111.01h.003c.068 0 .135-.008.2-.02l.018-.003h.004l7.278-1.576.004-.001.009-.002c.021-.004.038-.013.058-.019.046-.013.093-.025.137-.044.03-.013.056-.03.084-.046.032-.017.064-.033.094-.053.03-.02.056-.045.083-.068.024-.021.05-.039.072-.062.024-.025.044-.053.066-.079.021-.026.043-.051.062-.078.018-.027.031-.057.047-.086.016-.031.034-.061.048-.093.014-.033.022-.069.032-.104.009-.03.02-.06.027-.091.009-.045.011-.092.014-.139.001-.022.007-.043.007-.065v-.01-1.569h12.401v-.002zm-10.91 8.009l14.187-7.332v22.892L59.362 62.65V39.758zm2.531 31.538l31.002-18.234v9.136L61.893 80.431v-9.135zM95 51.221c0-.021-.005-.041-.006-.062a1.099 1.099 0 0 0-.011-.114 1 1 0 0 0-.023-.098.857.857 0 0 0-.078-.2c-.01-.019-.016-.039-.027-.058l-.019-.026a.967.967 0 0 0-.065-.089c-.021-.026-.04-.052-.063-.076s-.049-.045-.074-.067c-.026-.023-.052-.046-.079-.066a.769.769 0 0 0-.087-.052c-.029-.017-.057-.034-.087-.047-.032-.014-.066-.025-.099-.036-.031-.011-.062-.022-.094-.029-.032-.007-.066-.011-.099-.016a.981.981 0 0 0-.109-.011c-.011-.001-.021-.003-.032-.003H75.654V30.697c0-.013-.003-.025-.004-.038-.001-.038-.006-.075-.011-.113-.005-.033-.009-.066-.017-.098a1.147 1.147 0 0 0-.071-.2c-.005-.012-.008-.024-.014-.035-.009-.017-.022-.031-.031-.048a1.144 1.144 0 0 0-.126-.171.937.937 0 0 0-.233-.193 1.104 1.104 0 0 0-.28-.118c-.032-.008-.064-.016-.097-.021a1.036 1.036 0 0 0-.112-.011c-.019-.001-.037-.006-.056-.006H57.867V17.803l-.001-.004c0-.025-.005-.05-.007-.075-.003-.037-.005-.073-.011-.109l-.004-.03-.001-.004c-.004-.02-.013-.038-.018-.057l-.001-.004a.813.813 0 0 0-.031-.099l-.013-.035c-.01-.023-.023-.043-.035-.065-.014-.027-.028-.055-.044-.081l-.019-.032c-.014-.021-.032-.039-.048-.059-.019-.023-.037-.047-.057-.068-.009-.009-.016-.019-.025-.027-.018-.018-.039-.032-.058-.049-.023-.019-.045-.039-.07-.057l-.029-.022c-.022-.015-.047-.026-.07-.039-.025-.014-.049-.029-.076-.04l-.033-.016c-.029-.012-.06-.019-.09-.029-.019-.006-.036-.015-.055-.02l-7.027-1.754c-.017-.004-.034-.004-.052-.008a1.005 1.005 0 0 0-.424.004c-.017.004-.034.004-.052.008l-6.574 1.754c-.562.15-.895.727-.745 1.288.008.029.02.056.03.085l-.006.066c-.003.035-.011.069-.011.105v14.763l-9.847 5.09c-.017.009-.031.021-.047.03a.966.966 0 0 0-.244.196 1.274 1.274 0 0 0-.122.163.95.95 0 0 0-.089.183.835.835 0 0 0-.03.097c-.008.032-.016.064-.021.097a1.036 1.036 0 0 0-.011.112c-.001.019-.006.037-.006.056v15.215l-4.283 2.519c-.76-4.815-4.937-8.509-9.963-8.509-5.562 0-10.087 4.525-10.087 10.087 0 3.219 1.517 6.088 3.873 7.937l-5.815 3.42c-.009.006-.016.013-.025.018-.032.02-.061.043-.09.066-.026.02-.052.04-.076.062-.024.023-.045.049-.067.074-.023.026-.046.052-.066.08a.91.91 0 0 0-.051.085c-.017.029-.035.058-.048.089-.014.031-.024.063-.035.096-.011.032-.023.064-.03.098-.007.031-.011.063-.015.094-.005.038-.01.075-.011.114l-.003.03V82.27c0 .581.471 1.053 1.053 1.053H60.843a1.1 1.1 0 0 0 .231-.027c.059-.013.118-.03.176-.054l.014-.007c.038-.017.076-.035.113-.056l33.107-19.472c.009-.006.016-.013.026-.019.031-.02.06-.042.089-.065.026-.021.053-.041.076-.063.024-.023.045-.049.067-.074.023-.026.046-.052.066-.08.019-.027.035-.057.052-.086.017-.029.034-.058.048-.088.014-.031.024-.064.035-.097.011-.032.022-.063.03-.096.007-.032.011-.064.016-.096.005-.037.01-.074.011-.112 0-.01.003-.02.003-.031V51.221H95z"></path></g><!----></svg>